# xmcd CD database file
#
# Track frame offsets:
#	187
#	15600
#	29450
#	49222
#	62540
#	80250
#	103107
#	129185
#	140742
#	155075
#	172275
#	177800
#	183980
#	188422
#	196655
#	201735
#	209092
#	215355
#	220880
#	225705
#	232070
#	237882
#	245730
#	252090
#
# Disc length: 4166 seconds
#
# Revision: 0
# Processed by: cddbd v1.5.1PL0 Copyright (c) Steve Scherf et al.
# Submitted via: CDex 1.51
#
DISCID=64104418
DTITLE=三善晃 - 作品集1　嫁ぐ娘に
DYEAR=1900
DGENRE=Chorus
TTITLE0=嫁ぐ娘に 嫁ぐ日は近づき
TTITLE1=嫁ぐ娘に あなたの生まれたのは
TTITLE2=嫁ぐ娘に 戦いの日々
TTITLE3=嫁ぐ娘に 時間はきらきらと
TTITLE4=嫁ぐ娘に かどで
TTITLE5=五つの童画 風見鳥
TTITLE6=五つの童画 ほら貝の笛
TTITLE7=五つの童画 やじろべえ
TTITLE8=五つの童画 砂時計
TTITLE9=五つの童画 どんぐりのコマ
TTITLE10=小さな目 せんせい
TTITLE11=小さな目 かめ
TTITLE12=小さな目 先生のネックレス
TTITLE13=小さな目 ひろちゃん
TTITLE14=小さな目 みそしる
TTITLE15=小さな目 いもおい
TTITLE16=小さな目 あかちゃん
TTITLE17=小さな目 やけど
TTITLE18=小さな目 けんか
TTITLE19=小さな目 あさないたこと
TTITLE20=小さな目 ねこといぬ
TTITLE21=小さな目 うちのミーコ
TTITLE22=小さな目 ピアノ
TTITLE23=王孫不帰
EXTD=
EXTT0=
EXTT1=
EXTT2=
EXTT3=
EXTT4=
EXTT5=
EXTT6=
EXTT7=
EXTT8=
EXTT9=
EXTT10=
EXTT11=
EXTT12=
EXTT13=
EXTT14=
EXTT15=
EXTT16=
EXTT17=
EXTT18=
EXTT19=
EXTT20=
EXTT21=
EXTT22=
EXTT23=
PLAYORDER=
